<?xml version="1.0" encoding="UTF-8"?>
<svg xmlns="http://www.w3.org/2000/svg" xmlns:xlink="http://www.w3.org/1999/xlink" width="16px" height="16px" viewBox="0 0 16 16" version="1.1">
<g id="surface1">
<path style=" stroke:none;fill-rule:nonzero;fill:rgb(0%,0%,0%);fill-opacity:1;" d="M 4.691406 7.351562 L 4.691406 6.621094 L 2.710938 6.621094 L 2.710938 4.640625 L 1.980469 4.640625 L 1.980469 6.621094 L 0 6.621094 L 0 7.351562 L 1.980469 7.351562 L 1.980469 9.332031 L 2.710938 9.332031 L 2.710938 7.351562 Z M 4.691406 7.351562 "/>
<path style=" stroke:none;fill-rule:nonzero;fill:rgb(0%,0%,0%);fill-opacity:1;" d="M 12.632812 9.054688 L 7.105469 9.054688 C 5.246094 9.054688 3.738281 10.566406 3.738281 12.421875 L 3.738281 14.367188 L 16 14.367188 L 16 12.421875 C 16 10.566406 14.488281 9.054688 12.632812 9.054688 Z M 15.269531 13.636719 L 4.46875 13.636719 L 4.46875 12.421875 C 4.46875 10.96875 5.652344 9.789062 7.105469 9.789062 L 12.632812 9.789062 C 14.085938 9.789062 15.269531 10.96875 15.269531 12.421875 Z M 15.269531 13.636719 "/>
<path style=" stroke:none;fill-rule:nonzero;fill:rgb(0%,0%,0%);fill-opacity:1;" d="M 9.867188 8.710938 C 11.820312 8.710938 13.40625 7.121094 13.40625 5.171875 C 13.40625 3.21875 11.820312 1.632812 9.867188 1.632812 C 7.917969 1.632812 6.328125 3.21875 6.328125 5.171875 C 6.328125 7.121094 7.917969 8.710938 9.867188 8.710938 Z M 9.867188 2.363281 C 11.417969 2.363281 12.675781 3.621094 12.675781 5.171875 C 12.675781 6.71875 11.417969 7.980469 9.867188 7.980469 C 8.320312 7.980469 7.058594 6.71875 7.058594 5.171875 C 7.058594 3.621094 8.320312 2.363281 9.867188 2.363281 Z M 9.867188 2.363281 "/>
</g>
</svg>
